<mxfile host="app.diagrams.net" agent="Mozilla/5.0 (Windows NT 10.0; Win64; x64) AppleWebKit/537.36 (KHTML, like Gecko) Chrome/134.0.0.0 Safari/537.36" version="26.0.10">
  <diagram name="StrÃ¡nka-1" id="DhlYpdZlsgiXAGiRkV6A">
    <mxGraphModel dx="1912" dy="1029" grid="1" gridSize="10" guides="1" tooltips="1" connect="1" arrows="1" fold="1" page="1" pageScale="1" pageWidth="827" pageHeight="1169" math="0" shadow="0">
      <root>
        <mxCell id="0" />
        <mxCell id="1" parent="0" />
        <mxCell id="EYExvhXscumWDbPPhQJx-1" value="Main Activity" style="rounded=0;whiteSpace=wrap;html=1;" vertex="1" parent="1">
          <mxGeometry x="349" y="280" width="160" height="60" as="geometry" />
        </mxCell>
        <mxCell id="EYExvhXscumWDbPPhQJx-2" value="Camera Screen" style="rounded=0;whiteSpace=wrap;html=1;" vertex="1" parent="1">
          <mxGeometry x="349" y="440" width="160" height="60" as="geometry" />
        </mxCell>
        <mxCell id="EYExvhXscumWDbPPhQJx-3" value="Camera Manager" style="rounded=0;whiteSpace=wrap;html=1;" vertex="1" parent="1">
          <mxGeometry x="79" y="440" width="120" height="60" as="geometry" />
        </mxCell>
        <mxCell id="EYExvhXscumWDbPPhQJx-4" value="Result Screen" style="rounded=0;whiteSpace=wrap;html=1;" vertex="1" parent="1">
          <mxGeometry x="639" y="280" width="120" height="60" as="geometry" />
        </mxCell>
        <mxCell id="EYExvhXscumWDbPPhQJx-5" value="ML Kit Manager" style="rounded=0;whiteSpace=wrap;html=1;" vertex="1" parent="1">
          <mxGeometry x="349" y="590" width="160" height="60" as="geometry" />
        </mxCell>
        <mxCell id="EYExvhXscumWDbPPhQJx-6" value="Processor" style="rounded=0;whiteSpace=wrap;html=1;" vertex="1" parent="1">
          <mxGeometry x="349" y="760" width="160" height="60" as="geometry" />
        </mxCell>
        <mxCell id="EYExvhXscumWDbPPhQJx-7" value="Settings" style="rounded=0;whiteSpace=wrap;html=1;" vertex="1" parent="1">
          <mxGeometry x="69" y="280" width="120" height="60" as="geometry" />
        </mxCell>
        <mxCell id="EYExvhXscumWDbPPhQJx-8" value="" style="endArrow=classic;html=1;rounded=0;entryX=-0.024;entryY=0.824;entryDx=0;entryDy=0;entryPerimeter=0;" edge="1" parent="1" target="EYExvhXscumWDbPPhQJx-4">
          <mxGeometry width="50" height="50" relative="1" as="geometry">
            <mxPoint x="509" y="330" as="sourcePoint" />
            <mxPoint x="638" y="325" as="targetPoint" />
            <Array as="points" />
          </mxGeometry>
        </mxCell>
        <mxCell id="EYExvhXscumWDbPPhQJx-11" value="Display results" style="edgeLabel;html=1;align=center;verticalAlign=middle;resizable=0;points=[];" vertex="1" connectable="0" parent="EYExvhXscumWDbPPhQJx-8">
          <mxGeometry x="0.0147" y="2" relative="1" as="geometry">
            <mxPoint as="offset" />
          </mxGeometry>
        </mxCell>
        <mxCell id="EYExvhXscumWDbPPhQJx-9" value="" style="endArrow=classic;html=1;rounded=0;entryX=1.004;entryY=0.157;entryDx=0;entryDy=0;entryPerimeter=0;exitX=-0.014;exitY=0.161;exitDx=0;exitDy=0;exitPerimeter=0;" edge="1" parent="1" source="EYExvhXscumWDbPPhQJx-4" target="EYExvhXscumWDbPPhQJx-1">
          <mxGeometry width="50" height="50" relative="1" as="geometry">
            <mxPoint x="369" y="500" as="sourcePoint" />
            <mxPoint x="419" y="450" as="targetPoint" />
          </mxGeometry>
        </mxCell>
        <mxCell id="EYExvhXscumWDbPPhQJx-10" value="Take another picture" style="edgeLabel;html=1;align=center;verticalAlign=middle;resizable=0;points=[];" vertex="1" connectable="0" parent="EYExvhXscumWDbPPhQJx-9">
          <mxGeometry x="0.2194" y="-1" relative="1" as="geometry">
            <mxPoint x="23" as="offset" />
          </mxGeometry>
        </mxCell>
        <mxCell id="EYExvhXscumWDbPPhQJx-12" value="" style="endArrow=classic;html=1;rounded=0;exitX=0.002;exitY=0.836;exitDx=0;exitDy=0;exitPerimeter=0;entryX=1;entryY=0.833;entryDx=0;entryDy=0;entryPerimeter=0;" edge="1" parent="1" source="EYExvhXscumWDbPPhQJx-1" target="EYExvhXscumWDbPPhQJx-7">
          <mxGeometry width="50" height="50" relative="1" as="geometry">
            <mxPoint x="279" y="380" as="sourcePoint" />
            <mxPoint x="329" y="330" as="targetPoint" />
          </mxGeometry>
        </mxCell>
        <mxCell id="EYExvhXscumWDbPPhQJx-13" value="Open settings" style="edgeLabel;html=1;align=center;verticalAlign=middle;resizable=0;points=[];" vertex="1" connectable="0" parent="EYExvhXscumWDbPPhQJx-12">
          <mxGeometry x="0.0282" relative="1" as="geometry">
            <mxPoint as="offset" />
          </mxGeometry>
        </mxCell>
        <mxCell id="EYExvhXscumWDbPPhQJx-14" value="" style="endArrow=classic;html=1;rounded=0;exitX=1.01;exitY=0.18;exitDx=0;exitDy=0;exitPerimeter=0;entryX=-0.012;entryY=0.173;entryDx=0;entryDy=0;entryPerimeter=0;" edge="1" parent="1" source="EYExvhXscumWDbPPhQJx-7" target="EYExvhXscumWDbPPhQJx-1">
          <mxGeometry width="50" height="50" relative="1" as="geometry">
            <mxPoint x="219" y="280" as="sourcePoint" />
            <mxPoint x="269" y="230" as="targetPoint" />
          </mxGeometry>
        </mxCell>
        <mxCell id="EYExvhXscumWDbPPhQJx-15" value="Save settings" style="edgeLabel;html=1;align=center;verticalAlign=middle;resizable=0;points=[];" vertex="1" connectable="0" parent="EYExvhXscumWDbPPhQJx-14">
          <mxGeometry x="0.0462" y="-1" relative="1" as="geometry">
            <mxPoint as="offset" />
          </mxGeometry>
        </mxCell>
        <mxCell id="EYExvhXscumWDbPPhQJx-16" value="" style="endArrow=classic;html=1;rounded=0;" edge="1" parent="1">
          <mxGeometry width="50" height="50" relative="1" as="geometry">
            <mxPoint x="449" y="340" as="sourcePoint" />
            <mxPoint x="449" y="440" as="targetPoint" />
          </mxGeometry>
        </mxCell>
        <mxCell id="EYExvhXscumWDbPPhQJx-18" value="&lt;font style=&quot;font-size: 9px;&quot;&gt;Display &lt;br&gt;camera&lt;br&gt;preview&lt;/font&gt;&lt;div&gt;&lt;br&gt;&lt;/div&gt;" style="edgeLabel;html=1;align=center;verticalAlign=middle;resizable=0;points=[];" vertex="1" connectable="0" parent="EYExvhXscumWDbPPhQJx-16">
          <mxGeometry x="-0.5317" y="-1" relative="1" as="geometry">
            <mxPoint y="20" as="offset" />
          </mxGeometry>
        </mxCell>
        <mxCell id="EYExvhXscumWDbPPhQJx-17" value="" style="endArrow=classic;html=1;rounded=0;exitX=0.345;exitY=0;exitDx=0;exitDy=0;exitPerimeter=0;entryX=0.345;entryY=1;entryDx=0;entryDy=0;entryPerimeter=0;" edge="1" parent="1" source="EYExvhXscumWDbPPhQJx-2">
          <mxGeometry width="50" height="50" relative="1" as="geometry">
            <mxPoint x="409.4" y="440" as="sourcePoint" />
            <mxPoint x="404.20000000000005" y="340.24" as="targetPoint" />
          </mxGeometry>
        </mxCell>
        <mxCell id="EYExvhXscumWDbPPhQJx-19" value="&lt;font style=&quot;font-size: 9px;&quot;&gt;Pass&lt;br&gt;model &lt;br&gt;results&lt;/font&gt;" style="edgeLabel;html=1;align=center;verticalAlign=middle;resizable=0;points=[];" vertex="1" connectable="0" parent="EYExvhXscumWDbPPhQJx-17">
          <mxGeometry x="0.4415" relative="1" as="geometry">
            <mxPoint y="20" as="offset" />
          </mxGeometry>
        </mxCell>
        <mxCell id="EYExvhXscumWDbPPhQJx-20" value="" style="endArrow=classic;html=1;rounded=0;entryX=0.008;entryY=0.167;entryDx=0;entryDy=0;entryPerimeter=0;" edge="1" parent="1">
          <mxGeometry width="50" height="50" relative="1" as="geometry">
            <mxPoint x="198.04" y="469.87" as="sourcePoint" />
            <mxPoint x="368.00000000000006" y="469.89000000000004" as="targetPoint" />
          </mxGeometry>
        </mxCell>
        <mxCell id="EYExvhXscumWDbPPhQJx-21" value="&lt;font style=&quot;font-size: 9px;&quot;&gt;Provide camera functions&lt;/font&gt;" style="edgeLabel;html=1;align=center;verticalAlign=middle;resizable=0;points=[];" vertex="1" connectable="0" parent="EYExvhXscumWDbPPhQJx-20">
          <mxGeometry x="-0.1075" y="1" relative="1" as="geometry">
            <mxPoint as="offset" />
          </mxGeometry>
        </mxCell>
        <mxCell id="EYExvhXscumWDbPPhQJx-22" value="" style="endArrow=classic;html=1;rounded=0;exitX=0.675;exitY=1;exitDx=0;exitDy=0;exitPerimeter=0;entryX=0.675;entryY=0;entryDx=0;entryDy=0;entryPerimeter=0;" edge="1" parent="1" source="EYExvhXscumWDbPPhQJx-2" target="EYExvhXscumWDbPPhQJx-5">
          <mxGeometry width="50" height="50" relative="1" as="geometry">
            <mxPoint x="479" y="590" as="sourcePoint" />
            <mxPoint x="529" y="540" as="targetPoint" />
          </mxGeometry>
        </mxCell>
        <mxCell id="EYExvhXscumWDbPPhQJx-23" value="&lt;font style=&quot;font-size: 8px;&quot;&gt;Call&lt;br&gt;appropriate&lt;br&gt;model and pass &lt;br&gt;captured image&lt;/font&gt;" style="edgeLabel;html=1;align=center;verticalAlign=middle;resizable=0;points=[];" vertex="1" connectable="0" parent="EYExvhXscumWDbPPhQJx-22">
          <mxGeometry x="-0.2606" y="-1" relative="1" as="geometry">
            <mxPoint as="offset" />
          </mxGeometry>
        </mxCell>
        <mxCell id="EYExvhXscumWDbPPhQJx-24" value="" style="endArrow=classic;html=1;rounded=0;" edge="1" parent="1">
          <mxGeometry width="50" height="50" relative="1" as="geometry">
            <mxPoint x="449" y="650" as="sourcePoint" />
            <mxPoint x="449" y="760" as="targetPoint" />
          </mxGeometry>
        </mxCell>
        <mxCell id="EYExvhXscumWDbPPhQJx-25" value="&lt;font style=&quot;font-size: 9px;&quot;&gt;Pass &lt;br&gt;data &lt;br&gt;to &lt;br&gt;model&lt;/font&gt;" style="edgeLabel;html=1;align=center;verticalAlign=middle;resizable=0;points=[];" vertex="1" connectable="0" parent="EYExvhXscumWDbPPhQJx-24">
          <mxGeometry x="-0.652" relative="1" as="geometry">
            <mxPoint y="31" as="offset" />
          </mxGeometry>
        </mxCell>
        <mxCell id="EYExvhXscumWDbPPhQJx-26" value="" style="endArrow=classic;html=1;rounded=0;exitX=0.342;exitY=0;exitDx=0;exitDy=0;exitPerimeter=0;entryX=0.342;entryY=1;entryDx=0;entryDy=0;entryPerimeter=0;" edge="1" parent="1" source="EYExvhXscumWDbPPhQJx-6" target="EYExvhXscumWDbPPhQJx-5">
          <mxGeometry width="50" height="50" relative="1" as="geometry">
            <mxPoint x="389" y="710" as="sourcePoint" />
            <mxPoint x="439" y="660" as="targetPoint" />
          </mxGeometry>
        </mxCell>
        <mxCell id="EYExvhXscumWDbPPhQJx-27" value="&lt;font style=&quot;font-size: 9px;&quot;&gt;Return &lt;br&gt;model &lt;br&gt;results&lt;/font&gt;" style="edgeLabel;html=1;align=center;verticalAlign=middle;resizable=0;points=[];" vertex="1" connectable="0" parent="EYExvhXscumWDbPPhQJx-26">
          <mxGeometry x="0.1277" y="1" relative="1" as="geometry">
            <mxPoint as="offset" />
          </mxGeometry>
        </mxCell>
        <mxCell id="EYExvhXscumWDbPPhQJx-29" value="" style="endArrow=classic;html=1;rounded=0;exitX=0.342;exitY=0;exitDx=0;exitDy=0;exitPerimeter=0;entryX=0.342;entryY=1;entryDx=0;entryDy=0;entryPerimeter=0;" edge="1" parent="1" source="EYExvhXscumWDbPPhQJx-5" target="EYExvhXscumWDbPPhQJx-2">
          <mxGeometry width="50" height="50" relative="1" as="geometry">
            <mxPoint x="369" y="550" as="sourcePoint" />
            <mxPoint x="419" y="500" as="targetPoint" />
          </mxGeometry>
        </mxCell>
        <mxCell id="EYExvhXscumWDbPPhQJx-30" value="&lt;font style=&quot;font-size: 9px;&quot;&gt;Return &lt;br&gt;model &lt;br&gt;results&lt;/font&gt;" style="edgeLabel;html=1;align=center;verticalAlign=middle;resizable=0;points=[];" vertex="1" connectable="0" parent="EYExvhXscumWDbPPhQJx-29">
          <mxGeometry x="0.2438" relative="1" as="geometry">
            <mxPoint as="offset" />
          </mxGeometry>
        </mxCell>
      </root>
    </mxGraphModel>
  </diagram>
</mxfile>
